<?xml version="1.0" encoding="UTF-8" standalone="no"?>
<!-- Created with Inkscape (http://www.inkscape.org/) -->

<svg
   width="210mm"
   height="297mm"
   viewBox="0 0 210 297"
   version="1.1"
   id="svg1"
   xmlns="http://www.w3.org/2000/svg"
   xmlns:svg="http://www.w3.org/2000/svg">
  <defs
     id="defs1">
    <clipPath
       clipPathUnits="userSpaceOnUse"
       id="clipPath110">
      <path
         id="path111"
         style="fill:#ff0000;fill-opacity:1;fill-rule:nonzero;stroke:none;stroke-width:0.264583"
         d="M 40.832132,13.806392 V 278.32566 H 186.81857 V 13.806392 Z M 149.47098,250.03797 c 0.57331,0.009 1.12822,0.1706 1.67018,0.3638 0.43015,0.15334 0.78767,0.34246 1.07849,0.55397 0.13334,0.0186 0.26782,0.0153 0.40101,0.0398 0.71218,0.15053 1.37906,0.44459 2.0221,0.77773 0.50396,0.23871 0.97472,0.53754 1.45882,0.81236 0.30029,0.14324 0.62717,0.21761 0.94103,0.32762 0.45933,0.157 0.90144,0.35811 1.36684,0.49713 0.53327,0.15297 1.02704,0.40664 1.54203,0.60617 0.59351,0.23406 1.14972,0.54907 1.67276,0.91209 0.56584,0.41593 1.0507,0.91951 1.45831,1.48879 0.0907,0.15706 0.10729,0.18504 0.13643,0.23565 0.14774,0.11077 0.29684,0.21995 0.4315,0.34675 0.13206,0.13368 0.26481,0.2665 0.40359,0.39325 0.19317,0.15884 0.34504,0.35675 0.49351,0.55604 0.0993,0.14791 0.0513,0.0724 0.14211,0.22841 0.26264,0.45125 0.23242,0.82983 0.0641,1.05524 -0.005,0.43785 -0.19616,0.72211 -0.52865,1.00975 -0.34351,0.27392 -0.75209,0.42246 -1.16737,0.54777 -0.55428,0.14072 -1.1211,0.22159 -1.68259,0.32712 -0.48617,0.0921 -0.96469,0.21739 -1.44642,0.32917 -0.50155,0.10818 -0.99483,0.24837 -1.50017,0.33797 -0.61138,0.0951 -1.2305,0.12071 -1.84795,0.14211 -0.67238,0.02 -1.34482,0.0234 -2.01744,0.0274 -0.81845,8e-5 -1.63472,0.061 -2.44843,0.14366 -0.62841,0.0533 -1.2526,0.14082 -1.87844,0.21652 -0.61882,0.0888 -1.23327,0.20902 -1.84692,0.32815 -0.63845,0.13601 -1.28688,0.20381 -1.93683,0.25321 -0.9038,0.0464 -1.80775,0.0946 -2.71198,0.13229 -0.73419,0.0294 -1.46881,0.0427 -2.20348,0.0527 -0.64771,0.008 -1.29581,0.009 -1.94355,0.0114 -0.69253,0.002 -1.38487,0.002 -2.0774,0.002 -0.58236,1.8e-4 -1.16483,-5e-5 -1.74718,0 -0.54014,2e-5 -1.07992,-1e-5 -1.62005,0 h -1.48467 c -0.28706,0.005 -0.57369,-0.007 -0.86041,-0.015 -0.32508,0.0189 -0.65033,0.0346 -0.97617,0.0263 h -0.0553 c -0.11336,0.0585 -0.26313,0.0941 -0.44959,0.092 -0.2798,-0.003 -0.13905,-5.3e-4 -0.42271,-0.005 -0.12843,-0.003 -0.25706,-0.004 -0.3855,-0.009 -0.11022,0.085 -0.25182,0.15315 -0.46148,0.16588 -0.0312,0.002 -0.0623,0.004 -0.0935,0.006 h -0.36329 -0.41857 -0.37414 c -0.25258,0 -0.43728,-0.0683 -0.55449,-0.16846 -0.40406,-0.15785 -0.54072,-0.65468 0.0661,-1.19063 0.30539,-0.2696 0.63881,-0.50582 0.96531,-0.74879 0.34184,-0.25515 0.68381,-0.51201 1.05265,-0.7276 0.19146,-0.11192 0.45086,-0.24581 0.64802,-0.34933 0.53155,-0.27252 1.07429,-0.5226 1.59939,-0.80771 0.3875,-0.21615 0.76799,-0.44417 1.13946,-0.68678 0.40203,-0.25453 0.78261,-0.54037 1.17048,-0.81545 0.39421,-0.28267 0.7962,-0.55458 1.21129,-0.80564 0.40476,-0.2593 0.84301,-0.45796 1.27331,-0.66972 0.4,-0.19727 0.79271,-0.40888 1.18597,-0.61909 0.35258,-0.18312 0.69208,-0.38925 1.03973,-0.58136 0.34129,-0.19422 0.68806,-0.38122 1.02165,-0.58859 0.34297,-0.23163 0.69913,-0.44333 1.05419,-0.65577 0.31601,-0.20043 0.64347,-0.38147 0.96894,-0.56586 0.31298,-0.18776 0.61726,-0.38977 0.92294,-0.58911 0.3571,-0.23485 0.74183,-0.42137 1.12654,-0.60565 0.32446,-0.15097 0.66119,-0.27348 0.98702,-0.42116 0.29858,-0.14411 0.57265,-0.32965 0.84905,-0.51108 0.18685,-0.14504 0.40949,-0.23677 0.59945,-0.37621 0.13094,-0.0803 0.23528,-0.19202 0.35191,-0.29042 0.20913,-0.16385 0.45665,-0.30055 0.72399,-0.33745 0.0887,-0.0123 0.17828,-0.011 0.26768,-0.016 v 5.3e-4 c 0.11619,0.005 0.22683,0.0477 0.34158,0.0641 0.39974,-0.12884 0.82307,-0.19663 1.25522,-0.2341 0.13438,-0.0156 0.26768,-0.0217 0.39998,-0.0196 z" />
    </clipPath>
  </defs>
  <g
     id="layer1"
     transform="matrix(-1,0,0,1,214.89809,0)">
    <path
       id="path2"
       style="opacity:1;fill:#ffffff;stroke:#ffffff;stroke-width:1"
       d="m 76.99375,14.318506 c -6.448296,0.724895 -6.590295,33.683732 -6.590295,33.683732 -16.006546,21.683895 -22.961309,36.632701 6.400642,60.803522 -29.296478,64.50508 -21.733616,75.3958 -19.201411,93.60462 -10.101629,21.59717 -34.827344,48.87719 8.194848,64.27773 10.118144,19.53736 123.185486,10.10253 120.474816,-3.3941 -0.69959,-16.39458 -18.03448,-19.49306 -34.26457,-23.28179 24.93779,-38.37668 1.66453,-85.68106 -12.00082,-131.20646 17.91938,-14.162693 16.75792,-27.431553 13.75471,-41.448631 -2.48532,-11.599873 -11.34474,-15.809875 -1.55391,-35.555453 5.88448,-11.867488 -15.1345,-0.350765 -27.45827,12.240597 -7.57823,-0.107277 -3.46453,-5.892771 -24.56697,-5.891113 0,0 -13.509306,-16.605836 -20.978569,-22.950537 -0.808872,-0.687089 -1.543136,-0.957106 -2.210201,-0.882117 z m 70.36883,239.201424 c 0.40273,-0.004 0.79636,0.0251 1.15859,0.091 0.25588,0.0465 0.50124,0.13885 0.75189,0.20825 0.21567,0.11581 0.44572,0.20793 0.64699,0.34727 0.25373,0.17567 0.49922,0.4102 0.67024,0.68419 0.11093,0.0422 0.22335,0.0808 0.33176,0.1292 0.45088,0.20127 0.93976,0.46572 1.32085,0.78651 0.24106,0.2029 0.38908,0.46377 0.54416,0.72037 0.09,0.0791 0.17432,0.16547 0.24133,0.26252 0.10663,0.0208 0.21298,0.0432 0.31987,0.062 0.26528,0.12134 0.7718,0.24442 0.7798,0.66662 0.0103,0.53872 -0.39134,0.78522 -0.80667,0.95602 -0.002,0.0295 0.002,0.0584 -0.002,0.0879 0.008,0.001 0.0162,0.001 0.0243,0.002 0.20984,0.0301 0.41824,0.0697 0.62735,0.10439 0.69206,0.11496 0.57568,0.8148 -0.11627,0.69918 -0.19952,-0.0333 -0.39819,-0.0714 -0.59841,-0.10025 -0.0288,-0.004 -0.0579,-0.005 -0.0868,-0.008 -0.1053,0.31215 -0.2602,0.60516 -0.46922,0.85525 -0.12778,0.15288 -0.28966,0.27359 -0.4346,0.41031 -0.17948,0.11451 -0.34922,0.24615 -0.53847,0.34365 -0.20268,0.10444 -0.41723,0.18633 -0.63303,0.25993 -1.19104,0.40649 -2.45385,0.46495 -3.69952,0.36328 -0.36528,-0.0536 -0.73476,-0.0848 -1.09606,-0.16071 -1.20265,-0.25276 -2.37592,-0.77588 -3.29075,-1.60869 -0.17134,-0.15597 -0.31717,-0.33767 -0.47594,-0.50643 -0.1205,-0.1725 -0.25545,-0.33567 -0.36174,-0.51728 -0.22186,-0.3791 -0.34796,-0.81257 -0.36535,-1.24953 -0.17122,-0.0764 -0.3037,-0.27681 -0.21807,-0.56896 0.0199,-0.068 0.0337,-0.13781 0.0599,-0.20361 0.11313,-0.28456 0.35355,-0.50414 0.52813,-0.74827 0.37651,-0.44711 0.76067,-0.8923 1.25471,-1.21543 0.10268,-0.0591 0.20315,-0.12305 0.30851,-0.17725 0.15934,-0.082 0.3343,-0.12183 0.50126,-0.18448 0.18258,-0.10681 0.36485,-0.21492 0.55965,-0.29611 0.74621,-0.31098 1.67767,-0.4847 2.56367,-0.49454 z m -0.85369,1.10949 c -0.15479,-0.003 -0.30848,0.002 -0.5364,0.003 -0.5119,0.0337 -1.01407,0.15473 -1.495,0.33435 -0.14284,0.11658 -0.54653,0.37558 -0.57878,0.62786 -0.0481,0.3756 0.25967,0.74018 0.50488,0.95705 0.12516,0.1107 0.24201,0.19988 0.35657,0.27905 -0.0626,-0.31236 0.0604,-0.51173 0.24184,-0.52193 -0.003,-0.11994 0.018,-0.24432 0.0718,-0.37155 0.17762,-0.41995 0.48209,-0.52224 0.84336,-0.74259 0.21754,-0.075 0.42988,-0.16581 0.65216,-0.22531 0.33867,-0.0907 0.70132,-0.15354 1.07073,-0.19069 -0.19659,-0.0351 -0.39012,-0.0872 -0.58859,-0.11007 -0.23219,-0.0267 -0.38782,-0.0366 -0.5426,-0.0393 z m 1.85983,0.81649 c -0.53452,0.007 -1.07465,0.0715 -1.57458,0.19585 -0.17863,0.0444 -0.35076,0.11227 -0.52607,0.16847 -0.0367,0.0188 -0.57339,0.2658 -0.58859,0.39015 -0.0402,0.32948 0.47841,0.62127 0.66663,0.7736 0.0426,0.0238 0.0592,0.0283 0.0971,0.0496 0.0246,-0.0236 0.0512,-0.048 0.0811,-0.0734 0.54761,-0.46541 1.41312,-0.81273 2.09703,-0.99426 0.2988,-0.0793 0.60673,-0.11993 0.91002,-0.17983 0.19871,-0.0133 0.39712,-0.0358 0.59583,-0.0491 0.0105,-0.0712 0.008,-0.14117 -0.005,-0.20929 -0.0909,0.0342 -0.17464,0.0778 -0.31729,0.0548 -0.16329,-0.0263 -0.3256,-0.06 -0.48989,-0.0791 -0.30679,-0.0357 -0.62548,-0.0519 -0.9462,-0.0475 z m -5.14904,0.40101 c -0.16256,0.17131 -0.35011,0.31682 -0.50229,0.49764 -0.0582,0.0905 -0.24433,0.28556 -0.35502,0.45217 0.0795,0.0863 0.13925,0.22573 0.15089,0.42219 0.005,0.0924 -0.009,0.18582 0,0.27802 0.0292,0.29339 0.14881,0.61456 0.30076,0.86352 0.0869,0.14234 0.19657,0.26902 0.29507,0.40359 0.0568,0.059 0.11155,0.1204 0.16692,0.18087 -0.0434,-0.15865 0.0622,-0.34562 0.38861,-0.42582 0.0799,-0.0196 0.15907,-0.0427 0.23977,-0.0589 0.47696,-0.0959 0.96617,-0.12652 1.45263,-0.16226 -0.0807,-0.14316 -0.12401,-0.30308 -0.1943,-0.45165 -0.39355,-0.16595 -0.73398,-0.34659 -1.15549,-0.70745 -0.21719,-0.18594 -0.41862,-0.4006 -0.56276,-0.64751 -0.11437,-0.1959 -0.206,-0.41814 -0.22479,-0.6444 z m 7.31428,0.57929 c -0.16318,0.177 -0.39338,0.28557 -0.58601,0.43253 -0.14454,0.0542 -0.20679,0.0792 -0.29714,0.11421 0.46693,-0.0797 0.92552,-0.20645 1.39733,-0.2496 0.23648,-0.0216 0.502,-0.029 0.76223,-0.0372 -0.39842,-0.17703 -0.85425,-0.24729 -1.27641,-0.25993 z m -2.71404,0.56947 c -0.11934,0.0534 -0.23764,0.10913 -0.35347,0.1695 -0.12222,0.0637 -0.236,0.13018 -0.33951,0.20671 0.0589,0.0262 0.11134,0.0643 0.1819,0.0925 0.18871,-0.0565 0.38601,-0.11381 0.62063,-0.18449 0.0339,-0.009 0.0694,-0.01 0.10335,-0.0186 -0.13224,-0.0532 -0.20673,-0.15483 -0.2129,-0.26562 z m 4.5005,0.38706 c 0.0602,0.0666 0.1255,0.13087 0.1881,0.19689 8.6e-4,-5.1e-4 0.002,-0.001 0.003,-0.002 0.011,-0.0575 0.0197,-0.0943 0.0284,-0.13385 -3.4e-4,-0.002 -7.1e-4,-0.003 -0.001,-0.005 -0.008,-0.0201 -0.0168,-0.0272 -0.0243,-0.046 -0.064,-0.004 -0.128,-0.008 -0.19378,-0.0103 z m -0.92811,0.0253 c -0.0871,0.006 -0.17687,0.0117 -0.25942,0.0191 -0.8678,0.0784 -1.72914,0.22441 -2.57658,0.42633 0.0558,0.0129 0.11193,0.0238 0.16795,0.0357 0.044,-0.007 0.0885,-0.0143 0.12764,-0.0145 0.12535,-2.4e-4 0.21211,0.04 0.27957,0.0915 0.48755,0.081 0.98489,0.0831 1.48053,0.0971 0.4053,-0.0294 0.81993,-0.0893 1.21543,-0.19327 -0.1163,-0.13061 -0.22805,-0.2625 -0.37621,-0.37982 -0.0339,-0.0269 -0.0324,-0.0546 -0.0589,-0.0822 z m 1.8805,0.12454 c 0.01,0.0484 0.0164,0.0972 0.0248,0.14573 0.003,-5.7e-4 0.006,-0.002 0.01,-0.002 0.0621,-0.009 0.1067,0.0824 0.1695,0.0822 0.0336,-10e-5 0.0819,-0.0592 0.0579,-0.0827 -0.0713,-0.0697 -0.17005,-0.10162 -0.262,-0.14314 z m -5.1201,1.35547 c -0.25757,0.003 -0.51612,0.007 -0.77463,0.0114 -0.21099,0.0512 -0.39533,0.10468 -0.58187,0.1509 0.0419,0.0436 0.084,0.0869 0.12505,0.13126 0.64671,0.59594 1.38838,0.9845 2.26085,1.12654 0.21105,0.0344 0.42497,0.0618 0.63872,0.0558 0.20618,-0.005 0.40824,-0.0593 0.61236,-0.0889 0.19214,-0.0631 0.39313,-0.10434 0.57671,-0.18914 0.40405,-0.18666 0.84565,-0.54488 1.07074,-0.97255 -1.30579,-0.128 -2.61822,-0.19639 -3.92793,-0.22531 z m -3.33158,0.15503 c -0.30613,0.0371 -0.61128,0.0821 -0.91415,0.14211 -0.16952,0.0336 -0.3099,0.0188 -0.41755,-0.0227 0.011,0.0102 0.0214,0.021 0.0326,0.031 0.82719,0.73657 1.88702,1.19398 2.96468,1.41335 0.33311,0.0678 0.67316,0.0956 1.00975,0.14315 0.29701,0.0229 0.59514,0.0358 0.89297,0.0367 -0.73573,-0.23379 -1.41114,-0.58319 -1.99057,-1.12603 -0.12375,-0.136 -0.25356,-0.26673 -0.37517,-0.40463 -0.29574,0.0898 -0.62191,0.18595 -0.87024,0.37827 -0.55438,0.42958 -1.04204,0.0611 -0.55345,-0.44235 0.0627,-0.0646 0.14898,-0.0967 0.22117,-0.14883 z"
       clip-path="url(#clipPath110)" />
    <path
       style="opacity:0.886842;fill:none;stroke:#ffffff;stroke-width:0.5;stroke-dasharray:none"
       d="M 62.203173,68.103474 C 44.570387,67.277999 37.03099,66.571773 25.601306,74.803817"
       id="path3"
       transform="rotate(-3.8910794,204.02076,24.522546)" />
    <path
       style="opacity:0.886842;fill:none;stroke:#ffffff;stroke-width:0.675166;stroke-dasharray:none;stroke-opacity:1"
       d="M 60.603091,77.503953 C 51.683058,75.371919 42.52996,78.029949 35.201796,81.204143"
       id="path4"
       transform="matrix(0.77237735,-0.06190212,0.12507958,0.70002713,6.9106391,31.093393)" />
    <path
       style="opacity:0.886842;fill:none;stroke:#ffffff;stroke-width:0.5;stroke-dasharray:none"
       d="M 60.403081,84.004285 C 54.898923,83.725227 49.368943,83.807657 43.602224,87.204448"
       id="path5"
       transform="rotate(-15.279003,67.010612,81.651704)" />
    <circle
       id="path6"
       style="fill:#ffffff;stroke:#ffffff;stroke-width:0.264583"
       cx="153.60783"
       cy="70.003578"
       r="0.20138204" />
    <circle
       id="path7"
       style="fill:#ffffff;stroke:#ffffff;stroke-width:0.264583"
       cx="153.60783"
       cy="72.00367"
       r="0.20138204" />
    <path
       style="opacity:1;mix-blend-mode:normal;fill:none;stroke:#ffffff;stroke-width:0.349197;stroke-dasharray:none"
       d="m 154.00786,66.003368 c 5.35769,-1.58459 10.87975,-2.456911 16.80085,-1.600084"
       id="path8"
       transform="matrix(1.2814029,0.0600584,-0.22047883,1.0136482,-29.521414,-7.952036)" />
    <path
       style="opacity:1;mix-blend-mode:normal;fill:none;stroke:#ffffff;stroke-width:0.445368;stroke-dasharray:none"
       d="m 155.18365,73.603754 c 5.47503,-1.414747 10.95007,-1.80879 16.4251,-0.400021"
       id="path9"
       transform="matrix(0.78433698,0.18838523,-0.23354216,0.97234668,50.29766,-28.905256)" />
    <path
       style="opacity:1;mix-blend-mode:normal;fill:none;stroke:#ffffff;stroke-width:0.5;stroke-dasharray:none"
       d="m 155.818,79.791937 c 6.38529,-0.645586 13.39046,-0.423838 17.36865,2.448653"
       id="path10"
       transform="rotate(14.126526,174.19931,74.431485)" />
    <path
       style="opacity:0.886842;fill:none;stroke:#c0bfbc;stroke-width:1;stroke-dasharray:none;stroke-opacity:1"
       d="m 66.255703,244.91647 c 0.306928,-13.39247 0.189809,-30.34769 -8.78165,-42.02291"
       id="path15" />
    <path
       style="opacity:0.886842;fill:#f9f06b;stroke:#e5a50a;stroke-width:1;stroke-dasharray:none;stroke-opacity:1"
       d="m 75.767045,108.83996 c 21.085896,1.98006 42.588995,2.2913 64.742735,0 l 2.00442,6.61458 c -25.95867,2.76151 -47.771321,1.89526 -69.553341,1.00221 z"
       id="path112" />
    <path
       style="display:inline;opacity:0.886842;fill:#241f31;stroke:#241f31;stroke-width:1;stroke-dasharray:none;stroke-opacity:1"
       id="path113"
       d="M 101.17376,69.874809 A 12.322737,10.921431 0 0 1 89.04137,80.794937 12.322737,10.921431 0 0 1 76.534165,70.212175 12.322737,10.921431 0 0 1 88.280156,58.965104 12.322737,10.921431 0 0 1 101.15024,69.2004 l -12.299219,0.674409 z"
       transform="matrix(-1,0,0,1,214.89809,0)" />
    <path
       style="display:inline;opacity:0.886842;fill:#241f31;stroke:#241f31;stroke-width:1;stroke-dasharray:none;stroke-opacity:1"
       id="path114"
       d="m 136.34614,66.189697 a 9.2120962,7.9376497 0 0 1 -9.19861,7.937641 9.2120962,7.9376497 0 0 1 -9.22555,-7.914401 9.2120962,7.9376497 0 0 1 9.1716,-7.960813 9.2120962,7.9376497 0 0 1 9.2524,7.891095 l -9.21194,0.04648 z"
       transform="matrix(-1,0,0,1,214.89809,0)" />
    <path
       style="display:inline;opacity:1;fill:#000000;stroke:#000000;stroke-width:1;stroke-dasharray:none;stroke-opacity:1"
       id="path116"
       d="m 84.774023,67.729492 a 1.1338707,0.92126995 0 0 1 -1.107283,0.921017 1.1338707,0.92126995 0 0 1 -1.159212,-0.877823 1.1338707,0.92126995 0 0 1 1.052919,-0.962185 1.1338707,0.92126995 0 0 1 1.208591,0.8327 l -1.128886,0.08629 z"
       transform="matrix(-1,0,0,1,214.89809,0)" />
    <path
       style="display:inline;opacity:1;fill:#000000;stroke:#000000;stroke-width:1;stroke-dasharray:none;stroke-opacity:1"
       id="path117"
       d="m 124.82895,64.518257 a 1.1338707,0.92126995 0 0 1 -1.10728,0.921017 1.1338707,0.92126995 0 0 1 -1.15921,-0.877824 1.1338707,0.92126995 0 0 1 1.05292,-0.962184 1.1338707,0.92126995 0 0 1 1.20859,0.832699 l -1.12889,0.08629 z"
       transform="matrix(-1,0,0,1,214.89809,0)" />
    <path
       style="display:inline;opacity:1;fill:#000000;stroke:#000000;stroke-width:1;stroke-dasharray:none;stroke-opacity:1"
       id="path118"
       d="m 92.55219,66.51973 a 1.1338707,0.92126995 0 0 1 -1.107282,0.921016 1.1338707,0.92126995 0 0 1 -1.159212,-0.877823 1.1338707,0.92126995 0 0 1 1.052919,-0.962184 1.1338707,0.92126995 0 0 1 1.208591,0.832699 l -1.128886,0.08629 z"
       transform="matrix(-1,0,0,1,214.89809,0)" />
    <path
       style="display:inline;opacity:1;fill:#000000;stroke:#000000;stroke-width:1;stroke-dasharray:none;stroke-opacity:1"
       id="path119"
       d="m 94.252996,73.347267 a 1.1338707,0.92126995 0 0 1 -1.107283,0.921017 1.1338707,0.92126995 0 0 1 -1.159211,-0.877824 1.1338707,0.92126995 0 0 1 1.052918,-0.962184 1.1338707,0.92126995 0 0 1 1.208591,0.832699 l -1.128886,0.08629 z"
       transform="matrix(-1,0,0,1,214.89809,0)" />
    <path
       style="display:inline;opacity:1;fill:#000000;stroke:#000000;stroke-width:1;stroke-dasharray:none;stroke-opacity:1"
       id="path120"
       d="m 86.457632,74.764603 a 1.1338707,0.92126995 0 0 1 -1.107283,0.921016 1.1338707,0.92126995 0 0 1 -1.159212,-0.877823 1.1338707,0.92126995 0 0 1 1.052919,-0.962184 1.1338707,0.92126995 0 0 1 1.208591,0.832699 l -1.128886,0.08629 z"
       transform="matrix(-1,0,0,1,214.89809,0)" />
    <path
       style="display:inline;opacity:1;fill:#000000;stroke:#000000;stroke-width:1;stroke-dasharray:none;stroke-opacity:1"
       id="path121"
       d="m 131.44353,63.716492 a 1.1338707,0.92126995 0 0 1 -1.10728,0.921016 1.1338707,0.92126995 0 0 1 -1.15921,-0.877823 1.1338707,0.92126995 0 0 1 1.05292,-0.962184 1.1338707,0.92126995 0 0 1 1.20859,0.832699 l -1.12889,0.08629 z"
       transform="matrix(-1,0,0,1,214.89809,0)" />
    <path
       style="display:inline;opacity:1;fill:#000000;stroke:#000000;stroke-width:1;stroke-dasharray:none;stroke-opacity:1"
       id="path122"
       d="m 132.04485,68.5271 a 1.1338707,0.92126995 0 0 1 -1.10728,0.921016 1.1338707,0.92126995 0 0 1 -1.15921,-0.877823 1.1338707,0.92126995 0 0 1 1.05292,-0.962184 1.1338707,0.92126995 0 0 1 1.20859,0.832699 l -1.12889,0.08629 z"
       transform="matrix(-1,0,0,1,214.89809,0)" />
    <path
       style="display:inline;opacity:1;fill:#000000;stroke:#000000;stroke-width:1;stroke-dasharray:none;stroke-opacity:1"
       id="path123"
       d="m 126.03159,69.328865 a 1.1338707,0.92126995 0 0 1 -1.10728,0.921017 1.1338707,0.92126995 0 0 1 -1.15921,-0.877824 1.1338707,0.92126995 0 0 1 1.05292,-0.962184 1.1338707,0.92126995 0 0 1 1.20859,0.832699 l -1.12889,0.08629 z"
       transform="matrix(-1,0,0,1,214.89809,0)" />
    <path
       style="display:inline;opacity:1;fill:none;stroke:#000000;stroke-width:1;stroke-dasharray:none;stroke-opacity:1"
       d="m 92.804609,99.419191 c 2.221492,0.718179 42.629881,0.336642 41.090591,-1.202651"
       id="path124"
       transform="matrix(-1,0,0,1,214.89809,0)" />
    <path
       style="display:inline;opacity:1;fill:none;stroke:#000000;stroke-width:1;stroke-dasharray:none;stroke-opacity:1"
       d="m 97.615212,96.813446 c 0,6.614584 0,6.614584 0,6.614584"
       id="path125"
       transform="matrix(-1,0,0,1,214.89809,0)" />
    <path
       style="display:inline;opacity:1;fill:none;stroke:#000000;stroke-width:1;stroke-dasharray:none;stroke-opacity:1"
       d="m 106.23422,97.615212 c 0.60132,6.013258 0.40088,5.812818 0.40088,5.812818"
       id="path126"
       transform="matrix(-1,0,0,1,214.89809,0)" />
    <path
       style="display:inline;opacity:1;fill:none;stroke:#000000;stroke-width:1;stroke-dasharray:none;stroke-opacity:1"
       d="m 121.06692,96.613005 -2.4053,5.812815"
       id="path127"
       transform="matrix(-1,0,0,1,214.89809,0)" />
    <path
       style="display:inline;opacity:1;fill:none;stroke:#000000;stroke-width:1;stroke-dasharray:none;stroke-opacity:1"
       d="m 128.88415,97.013889 2.40531,3.808401"
       id="path128"
       transform="matrix(-1,0,0,1,214.89809,0)" />
    <path
       style="display:inline;opacity:1;fill:none;stroke:#000000;stroke-width:1;stroke-dasharray:none;stroke-opacity:1"
       id="path144"
       d="m 81.212879,111.16592 c 0.463042,0.0606 0.929545,0.0874 1.395805,0.10787 0.0678,0.002 0.135604,0.005 0.203406,0.007 0,0 -0.07848,-0.0574 -0.07848,-0.0574 v 0 c -0.06771,-0.002 -0.135424,-0.004 -0.203136,-0.007 -0.4665,-0.0204 -0.933389,-0.0468 -1.396399,-0.1098 z"
       transform="matrix(-1,0,0,1,214.89809,0)" />
    <path
       style="display:inline;opacity:1;fill:none;stroke:#000000;stroke-width:1;stroke-dasharray:none;stroke-opacity:1"
       id="path145"
       d="m 81.753241,111.49977 c 0.12197,0.50883 0.247848,1.01483 0.328438,1.53244 0.07322,0.39931 0.08656,0.77263 -0.123966,1.12878 -0.411951,0.33565 -1.060878,0.30395 -1.567693,0.32631 -0.317227,0.003 -0.792483,0.0437 -1.022488,-0.23426 0,0 -0.09063,-0.0365 -0.09063,-0.0365 v 0 c 0.400407,0.29036 0.68576,0.36911 1.19054,0.32645 0.510757,-0.0229 1.162029,0.009 1.574911,-0.33306 0.211339,-0.35864 0.200504,-0.73321 0.12591,-1.13532 -0.08056,-0.51715 -0.205928,-1.02284 -0.32675,-1.53147 z"
       transform="matrix(-1,0,0,1,214.89809,0)" />
    <path
       style="display:inline;opacity:1;fill:none;stroke:#000000;stroke-width:1;stroke-dasharray:none;stroke-opacity:1"
       id="path146"
       d="m 83.720764,112.04907 c -0.01767,0.49023 0.02151,0.97712 0.065,1.4648 0.08065,0.4136 0.177403,0.83855 0.526494,1.10355 0.07746,0.0338 0.147992,0.097 0.232381,0.10128 0.362604,0.0184 0.609137,-1.13205 0.670994,-1.3687 0.08867,-0.35608 0.148685,-0.71787 0.205745,-1.07997 0,0 -0.08448,-0.0447 -0.08448,-0.0447 v 0 c -0.05629,0.36204 -0.115523,0.72378 -0.204269,1.07967 -0.08905,0.34015 -0.24456,1.35248 -0.729546,1.34854 -0.352886,-0.25953 -0.449048,-0.6845 -0.531077,-1.09668 -0.04347,-0.48708 -0.0838,-0.97336 -0.06337,-1.46301 z"
       transform="matrix(-1,0,0,1,214.89809,0)" />
    <path
       style="display:inline;opacity:1;fill:none;stroke:#000000;stroke-width:1;stroke-dasharray:none;stroke-opacity:1"
       id="path147"
       d="m 86.484552,114.53183 c -0.05471,-0.66315 -0.109686,-1.32875 -0.09306,-1.99452 2.65e-4,-0.002 -0.0089,-0.29248 0.109443,-0.29656 0.02368,-8e-4 0.02223,0.042 0.03572,0.0615 0.193379,0.27935 0.355955,0.55593 0.515401,0.85701 0.332126,0.59009 0.529817,1.24922 0.868627,1.83415 0.485963,0.64359 0.492453,-0.38837 0.520319,-0.66954 0.04696,-0.61602 0.04778,-1.23408 0.04827,-1.85146 0,0 -0.08528,-0.0435 -0.08528,-0.0435 v 0 c -7.94e-4,0.6171 -0.0011,1.23493 -0.04775,1.85068 -0.02471,0.24707 -0.02111,0.56196 -0.14016,0.78995 -0.01704,0.0327 -0.05336,0.0508 -0.07868,0.0776 -0.0062,0.007 -0.0089,0.028 -0.01561,0.022 -0.04394,-0.0392 -0.07496,-0.0909 -0.112438,-0.13633 -0.342217,-0.58353 -0.539046,-1.24411 -0.870902,-1.83474 -0.12904,-0.24494 -0.420714,-0.92774 -0.721302,-1.00933 -0.104349,-0.0283 -0.140449,0.37848 -0.111022,0.30478 -0.01545,0.66587 0.03938,1.33127 0.0907,1.9948 z"
       transform="matrix(-1,0,0,1,214.89809,0)" />
    <path
       style="display:inline;opacity:1;fill:none;stroke:#000000;stroke-width:1;stroke-dasharray:none;stroke-opacity:1"
       id="path148"
       d="m 89.957052,112.33254 c 0.06144,0.5075 0.07662,1.01916 0.133768,1.52683 0.02992,0.22103 0.06054,0.44193 0.08898,0.66315 0,0 0.08723,0.043 0.08723,0.043 v 0 c -0.02867,-0.22132 -0.05955,-0.44232 -0.08987,-0.66342 -0.0579,-0.50688 -0.07251,-1.01787 -0.132234,-1.52483 z"
       transform="matrix(-1,0,0,1,214.89809,0)" />
    <path
       style="display:inline;opacity:1;fill:none;stroke:#000000;stroke-width:1;stroke-dasharray:none;stroke-opacity:1"
       id="path150"
       d="m 92.138173,115.18219 c -0.130175,-0.3052 -0.229409,-0.62256 -0.30418,-0.94558 -0.09924,-0.56639 -0.07278,-1.1377 0.09302,-1.68689 0.204264,-0.44436 0.485439,-0.76876 0.926796,-0.97863 0.39714,-0.14818 0.837705,-0.0567 1.159097,0.21769 0.368324,0.30532 0.606071,0.71037 0.763088,1.15594 0.117544,0.37888 0.13504,0.77581 0.145312,1.16928 0.02093,0.51914 -0.07784,0.7118 -0.533342,0.96827 -0.429271,0.18927 -0.86092,0.36182 -1.318945,0.46697 -0.334264,0.0796 -0.658353,0.0707 -0.97403,-0.0638 -0.177419,-0.12844 -0.251071,-0.30874 -0.30259,-0.51284 0,0 -0.08831,-0.0423 -0.08831,-0.0423 v 0 c 0.06991,0.28651 0.190971,0.48234 0.467762,0.61581 0.317362,0.13171 0.642599,0.13895 0.977146,0.0586 0.458195,-0.1065 0.8905,-0.27954 1.319972,-0.46964 0.456456,-0.25883 0.560713,-0.45483 0.539387,-0.97691 -0.01035,-0.39439 -0.02751,-0.79228 -0.144513,-1.17225 -0.155887,-0.44708 -0.393467,-0.85357 -0.760915,-1.16136 -0.406141,-0.27844 -0.836017,-0.50303 -1.330306,-0.307 -0.43043,0.20698 -0.734722,0.54854 -0.929979,0.98612 -0.165841,0.55044 -0.193566,1.12271 -0.09655,1.69073 0.07444,0.3234 0.173829,0.64074 0.301905,0.94709 z"
       transform="matrix(-1,0,0,1,214.89809,0)" />
    <path
       style="display:inline;opacity:1;fill:none;stroke:#000000;stroke-width:1;stroke-dasharray:none;stroke-opacity:1"
       id="path151"
       d="m 96.014338,115.59334 c 0.09755,-0.69628 0.213103,-1.387 0.35161,-2.07664 0.04371,-0.2675 0.113556,-0.53294 0.139679,-0.80337 0.01945,-0.20137 -0.01333,-0.3016 0.07697,-0.48623 0.217911,-0.22273 0.552529,-0.16825 0.796494,-0.0168 0.342966,0.28082 0.513101,0.6419 0.572809,1.07307 -0.003,0.0669 0.01344,0.13758 -0.0089,0.20075 -0.134102,0.38017 -0.664147,0.53264 -1.002467,0.62787 -0.03903,0.0257 -0.541536,0.0643 -0.504785,0.12089 0.04089,0.063 0.120364,0.0899 0.181583,0.13345 0.405088,0.42916 0.780127,0.88533 1.201746,1.29986 0.260712,0.26388 0.131323,0.13792 0.387411,0.37867 0,0 0.08929,0.0367 0.08929,0.0367 v 0 c -0.256773,-0.24049 -0.127161,-0.11453 -0.388041,-0.37869 -0.422129,-0.41345 -0.797882,-0.86826 -1.199187,-1.30046 -0.06007,-0.0431 -0.132082,-0.0703 -0.185647,-0.12123 -0.02606,-0.0248 0.06483,-0.0337 0.100261,-0.0399 0.307877,-0.0538 0.0394,-0.002 0.397129,-0.0746 0.343371,-0.0978 0.872263,-0.25358 1.009166,-0.63796 0.02267,-0.0636 0.0063,-0.13495 0.0095,-0.20242 -0.05871,-0.43345 -0.226952,-0.79572 -0.568997,-1.08094 -0.299495,-0.1752 -0.680696,-0.36632 -0.972701,-0.0666 -0.09165,0.18797 -0.05818,0.28488 -0.07729,0.48947 -0.02527,0.27053 -0.09485,0.53615 -0.137914,0.80376 -0.137419,0.68936 -0.252576,1.37989 -0.354891,2.07489 z"
       transform="matrix(-1,0,0,1,214.89809,0)" />
    <path
       style="display:inline;opacity:1;fill:none;stroke:#000000;stroke-width:1;stroke-dasharray:none;stroke-opacity:1"
       id="path152"
       d="m 101.72096,112.1908 c 0.002,0.62837 0.002,1.25675 10e-4,1.88512 0.0324,0.47853 -0.058,0.97235 0.0327,1.4451 0.16567,0.41499 0.67004,0.37613 1.04054,0.33928 0.19947,-0.0286 0.39798,-0.0633 0.59692,-0.0954 0,0 -0.0797,-0.056 -0.0797,-0.056 v 0 c -0.19868,0.0322 -0.39692,0.0671 -0.59623,0.0952 -0.21709,0.0207 -0.40755,0.0133 -0.6236,-0.008 -0.0265,-0.003 -0.0564,0.009 -0.0799,-0.003 -0.10698,-0.0575 -0.12101,-0.12807 -0.17018,-0.22934 -0.0946,-0.47162 -0.001,-0.96633 -0.0352,-1.44424 -5.2e-4,-0.62794 -7.9e-4,-1.25589 0.001,-1.88382 z"
       transform="matrix(-1,0,0,1,214.89809,0)" />
    <path
       style="display:inline;opacity:1;fill:none;stroke:#000000;stroke-width:1;stroke-dasharray:none;stroke-opacity:1"
       id="path153"
       d="m 105.04234,115.32456 c -0.47569,-0.16177 -0.76925,-0.59871 -1.03056,-1.0032 -0.27321,-0.56618 -0.35677,-1.19362 -0.30159,-1.81475 0.12958,-0.52931 0.44583,-0.72004 0.9339,-0.88833 0.26694,-0.0654 0.54079,-0.0735 0.81373,-0.0828 0,0 -0.0783,-0.0564 -0.0783,-0.0564 v 0 c -0.27351,0.01 -0.54791,0.0186 -0.8152,0.0852 -0.49212,0.17075 -0.80901,0.36416 -0.93943,0.89789 -0.0556,0.62277 0.0276,1.25174 0.29896,1.82054 0.29866,0.46418 0.65167,0.92086 1.19725,1.10148 z"
       transform="matrix(-1,0,0,1,214.89809,0)" />
    <path
       style="display:inline;opacity:1;fill:none;stroke:#000000;stroke-width:1;stroke-dasharray:none;stroke-opacity:1"
       id="path154"
       d="m 104.03154,113.45121 c 0.26527,0.0921 0.54191,0.13258 0.81883,0.17018 0,0 -0.0773,-0.0578 -0.0773,-0.0578 v 0 c -0.27717,-0.0383 -0.55403,-0.0798 -0.81933,-0.17284 z"
       transform="matrix(-1,0,0,1,214.89809,0)" />
    <path
       style="display:inline;opacity:1;fill:none;stroke:#000000;stroke-width:1;stroke-dasharray:none;stroke-opacity:1"
       id="path155"
       d="m 106.48605,115.43374 c 0.073,-0.60404 0.22661,-1.1963 0.31984,-1.79871 0.0947,-0.46742 0.13246,-0.96739 0.36263,-1.39315 0.0307,-0.0165 0.0573,-0.0506 0.0922,-0.0495 0.15544,0.005 0.11501,0.0875 0.1609,0.18889 0.0481,0.1063 0.11117,0.20535 0.16066,0.31103 0.14979,0.31986 0.1795,0.42913 0.29847,0.76341 0.18668,0.62593 0.32814,1.26405 0.65856,1.83305 0.0532,0.0598 0.10642,0.11954 0.15963,0.17931 0,0 0.0892,0.0375 0.0892,0.0375 v 0 c -0.0535,-0.0592 -0.10693,-0.11833 -0.1604,-0.1775 -0.33304,-0.56798 -0.47535,-1.20599 -0.66148,-1.83243 -0.0895,-0.25238 -0.43702,-1.3666 -0.7881,-1.35706 -0.0363,10e-4 -0.0629,0.0365 -0.0944,0.0547 -0.2294,0.4277 -0.26826,0.92796 -0.36246,1.39701 -0.0927,0.60279 -0.24479,1.1951 -0.3231,1.7987 z"
       transform="matrix(-1,0,0,1,214.89809,0)" />
    <path
       style="display:inline;opacity:1;fill:none;stroke:#000000;stroke-width:1;stroke-dasharray:none;stroke-opacity:1"
       id="path156"
       d="m 107.00893,114.69166 c 0.0523,-8e-5 0.10471,-1.5e-4 0.15706,-2.2e-4 0,0 -0.0792,-0.0575 -0.0792,-0.0575 v 0 c -0.0526,-7e-5 -0.10512,-1.4e-4 -0.15767,-2.2e-4 z"
       transform="matrix(-1,0,0,1,214.89809,0)" />
    <path
       style="display:inline;opacity:1;fill:none;stroke:#000000;stroke-width:1;stroke-dasharray:none;stroke-opacity:1"
       id="path157"
       d="m 109.72917,115.13264 c -0.0622,-0.60847 -0.0789,-1.21915 -0.15023,-1.82679 -0.0101,-0.0821 -0.0176,-0.16463 -0.0304,-0.24638 -0.0295,-0.18803 -0.0441,-0.23459 -0.10247,-0.41119 -0.0319,-0.0965 -0.0891,-0.21223 -0.0839,-0.31995 0.002,-0.0387 0.0228,-0.074 0.0342,-0.11097 0.21413,-0.24756 0.57761,-0.21624 0.87024,-0.16489 0.0556,0.0263 0.11656,0.0434 0.16686,0.0788 0.0253,0.0178 0.0354,0.0508 0.0532,0.0761 0.15271,0.21771 0.22326,0.41283 0.26981,0.67395 0.0481,0.39116 0.0466,0.75798 -0.28145,1.01954 -0.0622,0.0807 -0.19041,0.0802 -0.25748,0.15454 -0.14983,0.16596 0.0841,0.43619 0.1704,0.55609 0.2645,0.34647 0.57935,0.64577 0.8877,0.95196 0,0 0.0876,0.0362 0.0876,0.0362 v 0 c -0.30767,-0.30567 -0.622,-0.60411 -0.88629,-0.94967 -0.0808,-0.11102 -0.32082,-0.38272 -0.17702,-0.54127 0.0675,-0.0744 0.19551,-0.0749 0.25802,-0.15583 0.32914,-0.26616 0.33384,-0.63293 0.28595,-1.02895 -0.072,-0.41635 -0.22495,-0.7746 -0.65512,-0.93006 -0.29793,-0.0501 -0.66428,-0.0785 -0.87873,0.17618 -0.012,0.0384 -0.0337,0.0749 -0.0359,0.11505 -0.009,0.16034 0.15576,0.53096 0.18769,0.73154 0.013,0.0818 0.0206,0.16436 0.0308,0.24653 0.0724,0.60727 0.0905,1.21741 0.14815,1.82603 z"
       transform="matrix(-1,0,0,1,214.89809,0)" />
    <path
       style="display:inline;opacity:1;fill:none;stroke:#000000;stroke-width:1;stroke-dasharray:none;stroke-opacity:1"
       id="path158"
       d="m 113.13111,115.73334 c -0.10184,-0.59717 -0.16669,-1.19881 -0.21341,-1.80254 -0.0385,-0.52828 -0.0501,-1.05793 -0.0548,-1.58742 0.0163,-0.0211 0.0235,-0.0554 0.049,-0.0633 0.0939,-0.0292 0.099,0.0677 0.12838,0.11541 0.18967,0.30867 0.3655,0.60833 0.52613,0.93442 0.29466,0.63491 0.62261,1.25346 0.92903,1.88283 0.091,0.15788 0.38756,1.19936 0.5758,0.51241 0.0714,-0.69236 0.0616,-1.39111 0.0639,-2.08651 5.3e-4,-0.28906 -2.7e-4,-0.57812 -0.001,-0.86718 0,0 -0.0859,-0.0437 -0.0859,-0.0437 v 0 c 10e-4,0.2892 0.002,0.57839 0.002,0.86759 -0.001,0.69425 0.009,1.39202 -0.065,2.08304 -0.013,0.0478 -0.0261,0.0956 -0.0391,0.14337 -0.0175,0.0234 -0.0414,0.0431 -0.0526,0.0701 -0.004,0.0109 0.0163,0.0435 0.01,0.0338 -0.1394,-0.20751 -0.21947,-0.44668 -0.32056,-0.67325 -0.30666,-0.62958 -0.63536,-1.24807 -0.92999,-1.88332 -0.0788,-0.1604 -0.57505,-1.24047 -0.82582,-1.13939 -0.0267,0.0107 -0.0339,0.0464 -0.0509,0.0696 0.007,0.53001 0.017,1.06022 0.0565,1.58901 0.0467,0.6034 0.11188,1.20457 0.20967,1.802 z"
       transform="matrix(-1,0,0,1,214.89809,0)" />
    <path
       style="display:inline;opacity:1;fill:none;stroke:#000000;stroke-width:1;stroke-dasharray:none;stroke-opacity:1"
       id="path159"
       d="m 117.26254,112.41992 c -0.29942,0.26165 -0.51332,0.58434 -0.68823,0.93789 -0.20728,0.46033 -0.23976,0.76337 -0.10961,1.24882 0.22564,0.5992 0.53292,0.91185 1.08134,1.2124 0.18627,0.0864 0.35496,0.12746 0.5376,0.0258 0,0 -0.0826,-0.0539 -0.0826,-0.0539 v 0 c -0.18095,0.0973 -0.34852,0.0524 -0.53077,-0.0328 -0.45427,-0.22308 -0.73701,-0.65102 -0.9186,-1.11001 -0.13032,-0.48293 -0.0992,-0.78383 0.10686,-1.24238 0.17457,-0.35277 0.38802,-0.67463 0.68842,-0.93407 z"
       transform="matrix(-1,0,0,1,214.89809,0)" />
    <path
       style="display:inline;opacity:1;fill:none;stroke:#000000;stroke-width:1;stroke-dasharray:none;stroke-opacity:1"
       id="path160"
       d="m 116.64634,114.14233 c 0.28633,0.0483 0.5764,0.0656 0.86574,0.0847 0,0 -0.0777,-0.0572 -0.0777,-0.0572 v 0 c -0.28977,-0.0194 -0.58027,-0.0373 -0.86688,-0.0868 z"
       transform="matrix(-1,0,0,1,214.89809,0)" />
    <path
       style="display:inline;opacity:1;fill:none;stroke:#000000;stroke-width:1;stroke-dasharray:none;stroke-opacity:1"
       id="path161"
       d="m 119.77578,115.57403 c -0.14383,-0.64242 -0.23367,-1.2948 -0.36222,-1.94037 -0.0804,-0.2793 -0.12105,-0.58388 -0.28271,-0.83306 -0.038,-0.0585 -0.1806,-0.22257 -0.22653,-0.2765 -0.26743,-0.31275 -0.23214,-0.48282 0.14053,-0.65384 0.49817,-0.13759 0.89037,0.16737 1.24746,0.47136 0.36173,0.32725 0.60916,0.72323 0.75769,1.18416 0.047,0.42507 -0.19185,0.59578 -0.50692,0.81735 -0.0485,0.0906 -0.55612,0.18194 -0.57838,0.2425 -0.0127,0.0345 0.13242,0.0921 0.29097,0.17059 0.38001,0.16711 0.74268,0.37605 1.07617,0.62269 0,0 0.0897,0.0356 0.0897,0.0356 v 0 c -0.3835,-0.28582 -0.80718,-0.52083 -1.24232,-0.71898 -0.0456,-0.0141 -0.14597,-0.01 -0.1321,-0.0553 0.0134,-0.0443 0.53252,-0.16862 0.5782,-0.24475 0.31842,-0.22469 0.55793,-0.39865 0.51275,-0.82823 -0.14793,-0.46249 -0.3945,-0.86028 -0.75635,-1.18942 -0.40424,-0.34615 -0.8587,-0.70091 -1.41814,-0.56141 -0.37354,0.17418 -0.42091,0.35172 -0.14912,0.66962 0.0392,0.0458 0.19486,0.22514 0.22741,0.27452 0.16345,0.24791 0.2044,0.55245 0.28549,0.83129 0.12953,0.64521 0.22122,1.29684 0.35925,1.94029 z"
       transform="matrix(-1,0,0,1,214.89809,0)" />
    <path
       style="display:inline;opacity:1;fill:none;stroke:#000000;stroke-width:1;stroke-dasharray:none;stroke-opacity:1"
       id="path163"
       d="m 128.06511,114.84398 c -0.0939,-0.185 -0.2495,-0.32821 -0.36959,-0.49544 -0.0342,-0.0477 -0.0645,-0.0981 -0.0967,-0.14707 -0.1816,-0.30915 -0.23567,-0.5914 -0.24998,-0.94364 0.0134,-0.32996 0.13064,-0.53342 0.37534,-0.74574 0.19485,-0.14327 0.42507,-0.17801 0.66065,-0.18038 0.13906,0.001 0.28695,0.0236 0.40303,0.10756 0.006,0.005 0.003,0.0159 0.008,0.0218 0.0268,0.032 0.0577,0.0603 0.0865,0.0905 0.17133,0.19368 0.26013,0.43223 0.33208,0.67614 0.0561,0.19815 0.0701,0.40334 0.0774,0.60803 0.002,0.18238 -0.0794,0.34184 -0.17004,0.49468 -0.1214,0.16153 -0.24239,0.28818 -0.42574,0.37619 -0.12648,0.0645 -0.26171,0.097 -0.40185,0.11156 -0.0837,0.005 -0.0413,0.003 -0.12742,0.006 0,0 0.0791,0.057 0.0791,0.057 v 0 c 0.0865,-0.003 0.0439,-10e-4 0.12786,-0.007 0.14073,-0.0155 0.2762,-0.0497 0.40303,-0.11481 0.18225,-0.0895 0.30738,-0.21955 0.42835,-0.38121 0.0914,-0.15434 0.1746,-0.31515 0.17297,-0.49935 -0.008,-0.20556 -0.0211,-0.41173 -0.0775,-0.61076 -0.0721,-0.24484 -0.15962,-0.48479 -0.33035,-0.68027 -0.19405,-0.20789 -0.37948,-0.31018 -0.66233,-0.31245 -0.23748,0.004 -0.46873,0.0399 -0.664,0.1862 -0.245,0.21507 -0.36492,0.42124 -0.37864,0.75357 0.014,0.3538 0.0672,0.6373 0.24849,0.94851 0.032,0.0492 0.0619,0.0999 0.0961,0.14769 0.11847,0.16598 0.27219,0.30802 0.36593,0.49081 z"
       transform="matrix(-1,0,0,1,214.89809,0)" />
    <path
       style="display:inline;opacity:1;fill:none;stroke:#000000;stroke-width:1;stroke-dasharray:none;stroke-opacity:1"
       id="path164"
       d="m 131.16447,114.91122 c -0.17736,-0.0885 -0.31456,-0.23963 -0.42706,-0.3999 -0.17914,-0.27247 -0.23392,-0.59704 -0.28605,-0.91267 -0.0463,-0.26917 -0.0613,-0.54175 -0.069,-0.81429 -0.007,-0.197 0.005,-0.41467 0.12745,-0.5794 0.0189,-0.0254 0.0427,-0.0468 0.064,-0.0703 0.16465,-0.13564 0.3762,-0.15118 0.58102,-0.15239 0.29651,0.0235 0.56192,0.158 0.82132,0.29249 0.24723,0.15674 0.44679,0.3669 0.62097,0.59963 0.14079,0.19065 0.24894,0.39922 0.30707,0.62881 0.047,0.21977 0.0373,0.37868 -0.0441,0.58635 -0.0887,0.21195 -0.25139,0.36222 -0.42636,0.50313 -0.12339,0.0832 -0.25126,0.16743 -0.39436,0.21316 -0.0805,0.0257 -0.13215,0.0312 -0.21545,0.0452 -0.13172,0.0179 -0.26459,0.0226 -0.3973,0.0258 0,0 0.0784,0.0566 0.0784,0.0566 v 0 c 0.13271,-0.004 0.26557,-0.009 0.39723,-0.0275 0.084,-0.0144 0.13587,-0.0202 0.21694,-0.0466 0.14339,-0.0468 0.27141,-0.13232 0.39506,-0.21613 0.17612,-0.1422 0.3406,-0.29309 0.42986,-0.50681 0.0265,-0.0671 0.0485,-0.11329 0.0619,-0.18458 0.0252,-0.1339 0.01,-0.27509 -0.0156,-0.4073 -0.0569,-0.23117 -0.16515,-0.441 -0.30656,-0.63272 -0.2122,-0.28527 -0.46305,-0.52943 -0.78117,-0.69594 -0.26034,-0.13457 -0.52734,-0.26805 -0.82493,-0.28948 -0.20758,0.002 -0.42087,0.019 -0.58637,0.15835 -0.0216,0.024 -0.0456,0.046 -0.0648,0.072 -0.12272,0.16665 -0.13568,0.38595 -0.12907,0.58474 0.008,0.27313 0.0225,0.54634 0.0696,0.816 0.0518,0.31613 0.10653,0.64148 0.2829,0.91585 0.15123,0.21867 0.34698,0.38907 0.59223,0.49836 z"
       transform="matrix(-1,0,0,1,214.89809,0)" />
    <path
       style="display:inline;opacity:1;fill:none;stroke:#000000;stroke-width:1;stroke-dasharray:none;stroke-opacity:1"
       id="path165"
       d="m 134.16096,112.91412 c 0.23472,-0.14006 0.41726,-0.34641 0.57314,-0.56733 0.0881,-0.12527 0.16449,-0.25847 0.23293,-0.39538 0.002,-0.004 0.0784,-0.17218 0.0959,-0.19227 0.006,-0.007 0.019,-0.002 0.0285,-0.003 -0.0215,0.003 -0.056,-0.0103 -0.0644,0.01 -0.0126,0.0302 0.0144,0.0639 0.0203,0.0961 0.009,0.0465 0.0164,0.0932 0.0234,0.14 0.0251,0.16787 0.0464,0.33654 0.0691,0.50476 0.0516,0.27938 0.0779,0.56186 0.10966,0.84381 0.0414,0.22919 0.0736,0.45986 0.10676,0.69036 0.031,0.14255 0.0687,0.2834 0.10006,0.42586 0,0 0.0867,0.0418 0.0867,0.0418 v 0 c -0.0316,-0.14239 -0.0694,-0.28317 -0.10107,-0.42554 -0.0327,-0.23054 -0.0651,-0.46122 -0.10718,-0.69027 -0.0324,-0.28224 -0.0585,-0.56513 -0.1111,-0.84474 -0.0228,-0.16812 -0.0443,-0.33651 -0.068,-0.50448 -0.007,-0.0466 -0.0138,-0.0932 -0.0217,-0.13961 -0.006,-0.0323 -0.002,-0.0687 -0.0185,-0.0967 -0.026,-0.0428 -0.0703,-0.0714 -0.10539,-0.10718 -0.0103,0.004 -0.0241,0.003 -0.031,0.0115 -0.0151,0.0189 -0.093,0.19128 -0.094,0.19337 -0.0677,0.13679 -0.14374,0.26979 -0.23167,0.39468 -0.15552,0.2198 -0.33715,0.42698 -0.57506,0.56054 z"
       transform="matrix(-1,0,0,1,214.89809,0)" />
  </g>
</svg>
