<?xml version="1.0" encoding="UTF-8" standalone="no"?>
<!-- Created with Inkscape (http://www.inkscape.org/) -->

<svg
   width="210mm"
   height="297mm"
   viewBox="0 0 210 297"
   version="1.1"
   id="svg1"
   xmlns:inkscape="http://www.inkscape.org/namespaces/inkscape"
   xmlns:sodipodi="http://sodipodi.sourceforge.net/DTD/sodipodi-0.dtd"
   xmlns="http://www.w3.org/2000/svg"
   xmlns:svg="http://www.w3.org/2000/svg">
  <sodipodi:namedview
     id="namedview1"
     pagecolor="#505050"
     bordercolor="#ffffff"
     borderopacity="1"
     inkscape:showpageshadow="0"
     inkscape:pageopacity="0"
     inkscape:pagecheckerboard="1"
     inkscape:deskcolor="#505050"
     inkscape:document-units="mm">
    <inkscape:page
       x="0"
       y="0"
       width="210"
       height="297"
       id="page2"
       margin="0"
       bleed="0" />
  </sodipodi:namedview>
  <defs
     id="defs1">
    <filter
       inkscape:collect="always"
       style="color-interpolation-filters:sRGB"
       id="filter10"
       x="-0.021826314"
       y="-0.12592797"
       width="1.0399802"
       height="1.2452073">
      <feGaussianBlur
         inkscape:collect="always"
         stdDeviation="0.27199017"
         id="feGaussianBlur10" />
    </filter>
    <filter
       inkscape:collect="always"
       style="color-interpolation-filters:sRGB"
       id="filter11"
       x="-0.030980866"
       y="-0.22190623"
       width="1.0597689"
       height="1.4373445">
      <feGaussianBlur
         inkscape:collect="always"
         stdDeviation="0.27199017"
         id="feGaussianBlur11" />
    </filter>
    <filter
       inkscape:collect="always"
       style="color-interpolation-filters:sRGB"
       id="filter12"
       x="-0.046405918"
       y="-0.27338639"
       width="1.0860131"
       height="1.5364085">
      <feGaussianBlur
         inkscape:collect="always"
         stdDeviation="0.27199017"
         id="feGaussianBlur12" />
    </filter>
    <filter
       inkscape:collect="always"
       style="color-interpolation-filters:sRGB"
       id="filter13"
       x="-0.0056094104"
       y="-0.11324452"
       width="1.0097598"
       height="1.2228296">
      <feGaussianBlur
         inkscape:collect="always"
         stdDeviation="0.018635013"
         id="feGaussianBlur13" />
    </filter>
    <filter
       inkscape:collect="always"
       style="color-interpolation-filters:sRGB"
       id="filter14"
       x="-0.017978379"
       y="-0.19703977"
       width="1.042935"
       height="1.3752763">
      <feGaussianBlur
         inkscape:collect="always"
         stdDeviation="0.11963003"
         id="feGaussianBlur14" />
    </filter>
    <filter
       inkscape:collect="always"
       style="color-interpolation-filters:sRGB"
       id="filter15"
       x="-0.029723498"
       y="-0.51190076"
       width="1.0594336"
       height="2.0184281">
      <feGaussianBlur
         inkscape:collect="always"
         stdDeviation="0.18020825"
         id="feGaussianBlur15" />
    </filter>
    <clipPath
       clipPathUnits="userSpaceOnUse"
       id="clipPath110">
      <path
         id="path111"
         style="fill:#ff0000;fill-opacity:1;fill-rule:nonzero;stroke:none;stroke-width:0.264583"
         d="M 40.832132,13.806392 V 278.32566 H 186.81857 V 13.806392 Z M 149.47098,250.03797 c 0.57331,0.009 1.12822,0.1706 1.67018,0.3638 0.43015,0.15334 0.78767,0.34246 1.07849,0.55397 0.13334,0.0186 0.26782,0.0153 0.40101,0.0398 0.71218,0.15053 1.37906,0.44459 2.0221,0.77773 0.50396,0.23871 0.97472,0.53754 1.45882,0.81236 0.30029,0.14324 0.62717,0.21761 0.94103,0.32762 0.45933,0.157 0.90144,0.35811 1.36684,0.49713 0.53327,0.15297 1.02704,0.40664 1.54203,0.60617 0.59351,0.23406 1.14972,0.54907 1.67276,0.91209 0.56584,0.41593 1.0507,0.91951 1.45831,1.48879 0.0907,0.15706 0.10729,0.18504 0.13643,0.23565 0.14774,0.11077 0.29684,0.21995 0.4315,0.34675 0.13206,0.13368 0.26481,0.2665 0.40359,0.39325 0.19317,0.15884 0.34504,0.35675 0.49351,0.55604 0.0993,0.14791 0.0513,0.0724 0.14211,0.22841 0.26264,0.45125 0.23242,0.82983 0.0641,1.05524 -0.005,0.43785 -0.19616,0.72211 -0.52865,1.00975 -0.34351,0.27392 -0.75209,0.42246 -1.16737,0.54777 -0.55428,0.14072 -1.1211,0.22159 -1.68259,0.32712 -0.48617,0.0921 -0.96469,0.21739 -1.44642,0.32917 -0.50155,0.10818 -0.99483,0.24837 -1.50017,0.33797 -0.61138,0.0951 -1.2305,0.12071 -1.84795,0.14211 -0.67238,0.02 -1.34482,0.0234 -2.01744,0.0274 -0.81845,8e-5 -1.63472,0.061 -2.44843,0.14366 -0.62841,0.0533 -1.2526,0.14082 -1.87844,0.21652 -0.61882,0.0888 -1.23327,0.20902 -1.84692,0.32815 -0.63845,0.13601 -1.28688,0.20381 -1.93683,0.25321 -0.9038,0.0464 -1.80775,0.0946 -2.71198,0.13229 -0.73419,0.0294 -1.46881,0.0427 -2.20348,0.0527 -0.64771,0.008 -1.29581,0.009 -1.94355,0.0114 -0.69253,0.002 -1.38487,0.002 -2.0774,0.002 -0.58236,1.8e-4 -1.16483,-5e-5 -1.74718,0 -0.54014,2e-5 -1.07992,-1e-5 -1.62005,0 h -1.48467 c -0.28706,0.005 -0.57369,-0.007 -0.86041,-0.015 -0.32508,0.0189 -0.65033,0.0346 -0.97617,0.0263 h -0.0553 c -0.11336,0.0585 -0.26313,0.0941 -0.44959,0.092 -0.2798,-0.003 -0.13905,-5.3e-4 -0.42271,-0.005 -0.12843,-0.003 -0.25706,-0.004 -0.3855,-0.009 -0.11022,0.085 -0.25182,0.15315 -0.46148,0.16588 -0.0312,0.002 -0.0623,0.004 -0.0935,0.006 h -0.36329 -0.41857 -0.37414 c -0.25258,0 -0.43728,-0.0683 -0.55449,-0.16846 -0.40406,-0.15785 -0.54072,-0.65468 0.0661,-1.19063 0.30539,-0.2696 0.63881,-0.50582 0.96531,-0.74879 0.34184,-0.25515 0.68381,-0.51201 1.05265,-0.7276 0.19146,-0.11192 0.45086,-0.24581 0.64802,-0.34933 0.53155,-0.27252 1.07429,-0.5226 1.59939,-0.80771 0.3875,-0.21615 0.76799,-0.44417 1.13946,-0.68678 0.40203,-0.25453 0.78261,-0.54037 1.17048,-0.81545 0.39421,-0.28267 0.7962,-0.55458 1.21129,-0.80564 0.40476,-0.2593 0.84301,-0.45796 1.27331,-0.66972 0.4,-0.19727 0.79271,-0.40888 1.18597,-0.61909 0.35258,-0.18312 0.69208,-0.38925 1.03973,-0.58136 0.34129,-0.19422 0.68806,-0.38122 1.02165,-0.58859 0.34297,-0.23163 0.69913,-0.44333 1.05419,-0.65577 0.31601,-0.20043 0.64347,-0.38147 0.96894,-0.56586 0.31298,-0.18776 0.61726,-0.38977 0.92294,-0.58911 0.3571,-0.23485 0.74183,-0.42137 1.12654,-0.60565 0.32446,-0.15097 0.66119,-0.27348 0.98702,-0.42116 0.29858,-0.14411 0.57265,-0.32965 0.84905,-0.51108 0.18685,-0.14504 0.40949,-0.23677 0.59945,-0.37621 0.13094,-0.0803 0.23528,-0.19202 0.35191,-0.29042 0.20913,-0.16385 0.45665,-0.30055 0.72399,-0.33745 0.0887,-0.0123 0.17828,-0.011 0.26768,-0.016 v 5.3e-4 c 0.11619,0.005 0.22683,0.0477 0.34158,0.0641 0.39974,-0.12884 0.82307,-0.19663 1.25522,-0.2341 0.13438,-0.0156 0.26768,-0.0217 0.39998,-0.0196 z" />
    </clipPath>
  </defs>
  <g
     inkscape:label="Camada 1"
     inkscape:groupmode="layer"
     id="layer1">
    <path
       id="path2"
       style="opacity:1;fill:#ffffff;stroke:#ffffff;stroke-width:1"
       d="m 76.99375,14.318506 c -6.448296,0.724895 -6.590295,33.683732 -6.590295,33.683732 -16.006546,21.683895 -22.961309,36.632701 6.400642,60.803522 -29.296478,64.50508 -21.733616,75.3958 -19.201411,93.60462 -10.101629,21.59717 -34.827344,48.87719 8.194848,64.27773 10.118144,19.53736 123.185486,10.10253 120.474816,-3.3941 -0.69959,-16.39458 -18.03448,-19.49306 -34.26457,-23.28179 24.93779,-38.37668 1.66453,-85.68106 -12.00082,-131.20646 17.91938,-14.162693 16.75792,-27.431553 13.75471,-41.448631 -2.48532,-11.599873 -11.34474,-15.809875 -1.55391,-35.555453 5.88448,-11.867488 -15.1345,-0.350765 -27.45827,12.240597 -7.57823,-0.107277 -3.46453,-5.892771 -24.56697,-5.891113 0,0 -13.509306,-16.605836 -20.978569,-22.950537 -0.808872,-0.687089 -1.543136,-0.957106 -2.210201,-0.882117 z m 70.36883,239.201424 c 0.40273,-0.004 0.79636,0.0251 1.15859,0.091 0.25588,0.0465 0.50124,0.13885 0.75189,0.20825 0.21567,0.11581 0.44572,0.20793 0.64699,0.34727 0.25373,0.17567 0.49922,0.4102 0.67024,0.68419 0.11093,0.0422 0.22335,0.0808 0.33176,0.1292 0.45088,0.20127 0.93976,0.46572 1.32085,0.78651 0.24106,0.2029 0.38908,0.46377 0.54416,0.72037 0.09,0.0791 0.17432,0.16547 0.24133,0.26252 0.10663,0.0208 0.21298,0.0432 0.31987,0.062 0.26528,0.12134 0.7718,0.24442 0.7798,0.66662 0.0103,0.53872 -0.39134,0.78522 -0.80667,0.95602 -0.002,0.0295 0.002,0.0584 -0.002,0.0879 0.008,0.001 0.0162,0.001 0.0243,0.002 0.20984,0.0301 0.41824,0.0697 0.62735,0.10439 0.69206,0.11496 0.57568,0.8148 -0.11627,0.69918 -0.19952,-0.0333 -0.39819,-0.0714 -0.59841,-0.10025 -0.0288,-0.004 -0.0579,-0.005 -0.0868,-0.008 -0.1053,0.31215 -0.2602,0.60516 -0.46922,0.85525 -0.12778,0.15288 -0.28966,0.27359 -0.4346,0.41031 -0.17948,0.11451 -0.34922,0.24615 -0.53847,0.34365 -0.20268,0.10444 -0.41723,0.18633 -0.63303,0.25993 -1.19104,0.40649 -2.45385,0.46495 -3.69952,0.36328 -0.36528,-0.0536 -0.73476,-0.0848 -1.09606,-0.16071 -1.20265,-0.25276 -2.37592,-0.77588 -3.29075,-1.60869 -0.17134,-0.15597 -0.31717,-0.33767 -0.47594,-0.50643 -0.1205,-0.1725 -0.25545,-0.33567 -0.36174,-0.51728 -0.22186,-0.3791 -0.34796,-0.81257 -0.36535,-1.24953 -0.17122,-0.0764 -0.3037,-0.27681 -0.21807,-0.56896 0.0199,-0.068 0.0337,-0.13781 0.0599,-0.20361 0.11313,-0.28456 0.35355,-0.50414 0.52813,-0.74827 0.37651,-0.44711 0.76067,-0.8923 1.25471,-1.21543 0.10268,-0.0591 0.20315,-0.12305 0.30851,-0.17725 0.15934,-0.082 0.3343,-0.12183 0.50126,-0.18448 0.18258,-0.10681 0.36485,-0.21492 0.55965,-0.29611 0.74621,-0.31098 1.67767,-0.4847 2.56367,-0.49454 z m -0.85369,1.10949 c -0.15479,-0.003 -0.30848,0.002 -0.5364,0.003 -0.5119,0.0337 -1.01407,0.15473 -1.495,0.33435 -0.14284,0.11658 -0.54653,0.37558 -0.57878,0.62786 -0.0481,0.3756 0.25967,0.74018 0.50488,0.95705 0.12516,0.1107 0.24201,0.19988 0.35657,0.27905 -0.0626,-0.31236 0.0604,-0.51173 0.24184,-0.52193 -0.003,-0.11994 0.018,-0.24432 0.0718,-0.37155 0.17762,-0.41995 0.48209,-0.52224 0.84336,-0.74259 0.21754,-0.075 0.42988,-0.16581 0.65216,-0.22531 0.33867,-0.0907 0.70132,-0.15354 1.07073,-0.19069 -0.19659,-0.0351 -0.39012,-0.0872 -0.58859,-0.11007 -0.23219,-0.0267 -0.38782,-0.0366 -0.5426,-0.0393 z m 1.85983,0.81649 c -0.53452,0.007 -1.07465,0.0715 -1.57458,0.19585 -0.17863,0.0444 -0.35076,0.11227 -0.52607,0.16847 -0.0367,0.0188 -0.57339,0.2658 -0.58859,0.39015 -0.0402,0.32948 0.47841,0.62127 0.66663,0.7736 0.0426,0.0238 0.0592,0.0283 0.0971,0.0496 0.0246,-0.0236 0.0512,-0.048 0.0811,-0.0734 0.54761,-0.46541 1.41312,-0.81273 2.09703,-0.99426 0.2988,-0.0793 0.60673,-0.11993 0.91002,-0.17983 0.19871,-0.0133 0.39712,-0.0358 0.59583,-0.0491 0.0105,-0.0712 0.008,-0.14117 -0.005,-0.20929 -0.0909,0.0342 -0.17464,0.0778 -0.31729,0.0548 -0.16329,-0.0263 -0.3256,-0.06 -0.48989,-0.0791 -0.30679,-0.0357 -0.62548,-0.0519 -0.9462,-0.0475 z m -5.14904,0.40101 c -0.16256,0.17131 -0.35011,0.31682 -0.50229,0.49764 -0.0582,0.0905 -0.24433,0.28556 -0.35502,0.45217 0.0795,0.0863 0.13925,0.22573 0.15089,0.42219 0.005,0.0924 -0.009,0.18582 0,0.27802 0.0292,0.29339 0.14881,0.61456 0.30076,0.86352 0.0869,0.14234 0.19657,0.26902 0.29507,0.40359 0.0568,0.059 0.11155,0.1204 0.16692,0.18087 -0.0434,-0.15865 0.0622,-0.34562 0.38861,-0.42582 0.0799,-0.0196 0.15907,-0.0427 0.23977,-0.0589 0.47696,-0.0959 0.96617,-0.12652 1.45263,-0.16226 -0.0807,-0.14316 -0.12401,-0.30308 -0.1943,-0.45165 -0.39355,-0.16595 -0.73398,-0.34659 -1.15549,-0.70745 -0.21719,-0.18594 -0.41862,-0.4006 -0.56276,-0.64751 -0.11437,-0.1959 -0.206,-0.41814 -0.22479,-0.6444 z m 7.31428,0.57929 c -0.16318,0.177 -0.39338,0.28557 -0.58601,0.43253 -0.14454,0.0542 -0.20679,0.0792 -0.29714,0.11421 0.46693,-0.0797 0.92552,-0.20645 1.39733,-0.2496 0.23648,-0.0216 0.502,-0.029 0.76223,-0.0372 -0.39842,-0.17703 -0.85425,-0.24729 -1.27641,-0.25993 z m -2.71404,0.56947 c -0.11934,0.0534 -0.23764,0.10913 -0.35347,0.1695 -0.12222,0.0637 -0.236,0.13018 -0.33951,0.20671 0.0589,0.0262 0.11134,0.0643 0.1819,0.0925 0.18871,-0.0565 0.38601,-0.11381 0.62063,-0.18449 0.0339,-0.009 0.0694,-0.01 0.10335,-0.0186 -0.13224,-0.0532 -0.20673,-0.15483 -0.2129,-0.26562 z m 4.5005,0.38706 c 0.0602,0.0666 0.1255,0.13087 0.1881,0.19689 8.6e-4,-5.1e-4 0.002,-0.001 0.003,-0.002 0.011,-0.0575 0.0197,-0.0943 0.0284,-0.13385 -3.4e-4,-0.002 -7.1e-4,-0.003 -0.001,-0.005 -0.008,-0.0201 -0.0168,-0.0272 -0.0243,-0.046 -0.064,-0.004 -0.128,-0.008 -0.19378,-0.0103 z m -0.92811,0.0253 c -0.0871,0.006 -0.17687,0.0117 -0.25942,0.0191 -0.8678,0.0784 -1.72914,0.22441 -2.57658,0.42633 0.0558,0.0129 0.11193,0.0238 0.16795,0.0357 0.044,-0.007 0.0885,-0.0143 0.12764,-0.0145 0.12535,-2.4e-4 0.21211,0.04 0.27957,0.0915 0.48755,0.081 0.98489,0.0831 1.48053,0.0971 0.4053,-0.0294 0.81993,-0.0893 1.21543,-0.19327 -0.1163,-0.13061 -0.22805,-0.2625 -0.37621,-0.37982 -0.0339,-0.0269 -0.0324,-0.0546 -0.0589,-0.0822 z m 1.8805,0.12454 c 0.01,0.0484 0.0164,0.0972 0.0248,0.14573 0.003,-5.7e-4 0.006,-0.002 0.01,-0.002 0.0621,-0.009 0.1067,0.0824 0.1695,0.0822 0.0336,-10e-5 0.0819,-0.0592 0.0579,-0.0827 -0.0713,-0.0697 -0.17005,-0.10162 -0.262,-0.14314 z m -5.1201,1.35547 c -0.25757,0.003 -0.51612,0.007 -0.77463,0.0114 -0.21099,0.0512 -0.39533,0.10468 -0.58187,0.1509 0.0419,0.0436 0.084,0.0869 0.12505,0.13126 0.64671,0.59594 1.38838,0.9845 2.26085,1.12654 0.21105,0.0344 0.42497,0.0618 0.63872,0.0558 0.20618,-0.005 0.40824,-0.0593 0.61236,-0.0889 0.19214,-0.0631 0.39313,-0.10434 0.57671,-0.18914 0.40405,-0.18666 0.84565,-0.54488 1.07074,-0.97255 -1.30579,-0.128 -2.61822,-0.19639 -3.92793,-0.22531 z m -3.33158,0.15503 c -0.30613,0.0371 -0.61128,0.0821 -0.91415,0.14211 -0.16952,0.0336 -0.3099,0.0188 -0.41755,-0.0227 0.011,0.0102 0.0214,0.021 0.0326,0.031 0.82719,0.73657 1.88702,1.19398 2.96468,1.41335 0.33311,0.0678 0.67316,0.0956 1.00975,0.14315 0.29701,0.0229 0.59514,0.0358 0.89297,0.0367 -0.73573,-0.23379 -1.41114,-0.58319 -1.99057,-1.12603 -0.12375,-0.136 -0.25356,-0.26673 -0.37517,-0.40463 -0.29574,0.0898 -0.62191,0.18595 -0.87024,0.37827 -0.55438,0.42958 -1.04204,0.0611 -0.55345,-0.44235 0.0627,-0.0646 0.14898,-0.0967 0.22117,-0.14883 z"
       clip-path="url(#clipPath110)"
       sodipodi:nodetypes="scccccccssccsscscscssccccccccsccscscccscscscccscsccccccsccscscsccsscccccscccsssssccccsccscccsssssccscsscscccccccccccccccccccccscccccscscccccsccsccssccscccccscs" />
    <path
       style="opacity:0.886842;fill:none;stroke:#ffffff;stroke-width:0.5;stroke-dasharray:none;filter:url(#filter10)"
       d="M 62.203173,68.103474 C 44.570387,67.277999 37.03099,66.571773 25.601306,74.803817"
       id="path3"
       sodipodi:nodetypes="cc"
       transform="rotate(-3.8910794,204.02076,24.522546)" />
    <path
       style="opacity:0.886842;fill:none;stroke:#ffffff;stroke-width:0.675166;stroke-dasharray:none;stroke-opacity:1;filter:url(#filter11)"
       d="M 60.603091,77.503953 C 51.683058,75.371919 42.52996,78.029949 35.201796,81.204143"
       id="path4"
       sodipodi:nodetypes="cc"
       transform="matrix(0.77237735,-0.06190212,0.12507958,0.70002713,6.9106391,31.093393)" />
    <path
       style="opacity:0.886842;fill:none;stroke:#ffffff;stroke-width:0.5;stroke-dasharray:none;filter:url(#filter12)"
       d="M 60.403081,84.004285 C 54.898923,83.725227 49.368943,83.807657 43.602224,87.204448"
       id="path5"
       sodipodi:nodetypes="cc"
       transform="rotate(-15.279003,67.010612,81.651704)" />
    <circle
       id="path6"
       style="fill:#ffffff;stroke:#ffffff;stroke-width:0.264583"
       cx="153.60783"
       cy="70.003578"
       r="0.20138204" />
    <circle
       id="path7"
       style="fill:#ffffff;stroke:#ffffff;stroke-width:0.264583"
       cx="153.60783"
       cy="72.00367"
       r="0.20138204" />
    <path
       style="opacity:1;mix-blend-mode:normal;fill:none;stroke:#ffffff;stroke-width:0.349197;stroke-dasharray:none;filter:url(#filter13)"
       d="m 154.00786,66.003368 c 5.35769,-1.58459 10.87975,-2.456911 16.80085,-1.600084"
       id="path8"
       sodipodi:nodetypes="cc"
       transform="matrix(1.2814029,0.0600584,-0.22047883,1.0136482,-29.521414,-7.952036)" />
    <path
       style="opacity:1;mix-blend-mode:normal;fill:none;stroke:#ffffff;stroke-width:0.445368;stroke-dasharray:none;filter:url(#filter15)"
       d="m 155.18365,73.603754 c 5.47503,-1.414747 10.95007,-1.80879 16.4251,-0.400021"
       id="path9"
       sodipodi:nodetypes="cc"
       transform="matrix(0.78433698,0.18838523,-0.23354216,0.97234668,50.29766,-28.905256)" />
    <path
       style="opacity:1;mix-blend-mode:normal;fill:none;stroke:#ffffff;stroke-width:0.5;stroke-dasharray:none;filter:url(#filter14)"
       d="m 155.818,79.791937 c 6.38529,-0.645586 13.39046,-0.423838 17.36865,2.448653"
       id="path10"
       sodipodi:nodetypes="cc"
       transform="rotate(14.126526,174.19931,74.431485)" />
    <path
       style="opacity:0.886842;fill:none;stroke:#c0bfbc;stroke-width:1;stroke-dasharray:none;stroke-opacity:1"
       d="m 57.239315,202.66337 c -0.08088,13.39575 0.322349,30.34658 9.489555,41.86874"
       id="path15"
       sodipodi:nodetypes="cc" />
    <path
       style="opacity:0.886842;fill:#f9f06b;stroke:#e5a50a;stroke-width:1;stroke-dasharray:none;stroke-opacity:1"
       d="m 75.767045,108.83996 c 21.085896,1.98006 42.588995,2.2913 64.742735,0 l 2.00442,6.61458 c -25.95867,2.76151 -47.771321,1.89526 -69.553341,1.00221 z"
       id="path112"
       sodipodi:nodetypes="ccccc" />
  </g>
</svg>
